# xmcd
#
# Track frame offsets:
#	150
#	19510
#	45501
#	63695
#	83136
#	104287
#	126058
#	153524
#	177758
#	195128
#	209600
#	231183
#	249940
#	276136
#	298876
#
# Disc length: 4267
#
# Revision: 2
# Processed by: cddbd v1.5.1PL0 Copyright (c) Steve Scherf et al.
# Submitted via: CDex 1.51
# Normalized: r1:TDELIM( - )
#
DISCID=cb10a90f
DTITLE=Various Artist - All That Smooth Jazz - Disc Three
DYEAR=2004
DGENRE=Jazz
TTITLE0=Morning Magic - Larry Carlton
TTITLE1=Double Trouble - Fourplay
TTITLE2=So Into You - Steve Cole
TTITLE3=Belle Maria - Euge Groove Feat. Peter White
TTITLE4=Nice and Slow - Brian Culbertson Feat. Sherree and Trey Lorenz
TTITLE5=Raise The Roof - Bob James
TTITLE6=Mysterious Maiden - Chico Hamilton
TTITLE7=Song For DiFang - Kenney Garrett
TTITLE8=Car Wash 2000 - Rick Braun
TTITLE9=Night Moves - Dee Dee Bridgewater
TTITLE10=Without Your Love - Brian Culbertson
TTITLE11=Why I Came To California - Leon Ware Feat. Janis Siegel
TTITLE12=Bermuda Nights - Gerald Albright
TTITLE13=Pieces Of A Dream - Peices Of A Dream
TTITLE14=Eboness - Yusef Lateef
EXTD=YEAR: 2004
EXTT0=
EXTT1=
EXTT2=
EXTT3=
EXTT4=
EXTT5=
EXTT6=
EXTT7=
EXTT8=
EXTT9=
EXTT10=
EXTT11=
EXTT12=
EXTT13=
EXTT14=
PLAYORDER=
